<?xml version="1.0" encoding="UTF-8"?>
<svg id="Camada_2" data-name="Camada 2" xmlns="http://www.w3.org/2000/svg" xmlns:xlink="http://www.w3.org/1999/xlink" viewBox="0 0 827.47 931.86">
  <defs>
    <style>
      .cls-1 {
        fill: url(#Gradiente_sem_nome_12);
        stroke-width: 8px;
      }

      .cls-1, .cls-2 {
        stroke: #000;
        stroke-miterlimit: 10;
      }

      .cls-2 {
        fill: #262626;
        stroke-width: 6px;
      }
    </style>
    <linearGradient id="Gradiente_sem_nome_12" data-name="Gradiente sem nome 12" x1="578.02" y1="291.95" x2="814.08" y2="291.95" gradientUnits="userSpaceOnUse">
      <stop offset="0" stop-color="#fbb03b"/>
      <stop offset="1" stop-color="#ed1c24"/>
    </linearGradient>
  </defs>
  <g id="Camada_1-2" data-name="Camada 1">
    <path class="cls-1" d="m707,235.85c0,3.47-.44,13.9-7.89,23.81-6.3,8.39-14.25,11.91-17.64,13.18,10.36-.74,23.37-2.66,37.8-7.22,20.08-6.35,35.39-15.45,45.73-22.78-3.35,6.84-9.13,16.65-18.79,26.29-10.52,10.51-21.32,16.49-28.52,19.79,13.02-.59,29.61-2.53,48.23-7.76,20.1-5.64,36.28-13.36,48.17-20.13-13.4,19.25-46.97,61.31-104.63,78.37-15.63,4.62-67.32,19.91-105.54-6.27-6.78-4.64-25.81-17.69-25.89-37.22-.07-16.85,14.01-28.64,16.83-30.89,12.18-9.71,26.15-10.23,36.57-10.61,18.58-.68,22.85,4.9,36.16,3.7,9.52-.86,23.37-5.16,39.42-22.27Z"/>
    <g>
      <path class="cls-2" d="m242.6,164.44c-2.6,5.09-4.92,10.1-7,15-10.31-5.09-25.03-10.44-43-11-54.69-1.71-90.8,42.44-96,49,22.77-16.77,49.55-19.17,66-7,3.5,2.59,10,8.41,14,20-14.59,2.05-36.57,6.9-60.5,19.5-26.45,13.93-43.97,31.36-54,43,13.33-1.67,26.67-3.33,40-5-12.05,9.22-25.11,20.73-38,35-31.85,35.24-48.78,71.91-58,98,11.67-8.67,23.33-17.33,35-26-2.65,12.45-4.73,27.27-5,44-.54,33.49,6.41,61.07,13,80,7.33-7.67,14.67-15.33,22-23-2.92,11.54-8.28,39.26,2,72,9.69,30.89,28.19,49.95,37,58,3-7.67,6-15.33,9-23,4.04,12.81,12.6,34.12,31,55,22.43,25.46,47.83,37.05,61,42-12.3-25.93-5.8-38.87-4-42,14-24.34,71.16-25.36,97-1,14.19,13.38,15.42,30.1,36,41,10.78,5.71,21.33,6.83,28,7,6.8.43,56.5,2.76,92-36,25.35-27.68,28.44-59.92,29-70-.1-4.61-1.24-34.19-26-55-20.19-16.97-43.05-17.14-49-17-3.53-3.85-9.63-11.54-13-23-3.79-12.89-2.14-23.8-1-29,5.61-3.75,70.18-45.35,142-16,40.98,16.75,81.43,55.41,88,106,6.35,48.91-21.75,87.45-36,107-53.54,73.44-114.81,63.54-185,132-21.91,21.37-51.46,56.98-74,115,14.21-14.81,37.28-35.8,70-53,58.91-30.96,90.19-18.66,152-42,11.83-4.47,72.7-28.34,124-87,25.44-29.09,69.24-79.11,68-151-.97-56.32-28.98-96.46-38-109-31.46-43.77-71.68-62.92-89-70-.82-1.53-1.05-2.87-1-4,.29-6.73,10.8-13.05,26-16-16.91-6.49-49.09-16.27-90-13-38.56,3.08-67.38,16.37-83,25,0-3.72.46-9.51,3-16,3.44-8.78,8.92-14.31,12-17-13.32,2.36-27.78,5.86-43,11-50.22,16.96-86.61,44.37-110,66-1.63-1.66-2.94-3.35-4-5-9.76-15.23-3.04-34.67-1-40-11.33,13.78-24.65,34.22-30,61-9.52,47.6,13.8,76.25,4,85-19.08,17.05-174.52-53.87-167-149,5.41-68.42,94.35-139.74,207-122,8.4-11.53,16.38-14.95,22-16,18.83-3.51,32.34,15.71,53,11,6.44-1.47,11.19-4.72,14-7-7.98-1.71-19.85-5.49-30-15-11.79-11.04-10.78-18.83-21-33-7.41-10.28-15.25-16.01-25.5-23.5-15.74-11.5-25.63-14.19-34-19-13.21-7.6-29.12-24.25-38-65-14.69,14.78-30.31,34.18-43,59Z"/>
      <g id="Camada_2-2" data-name="Camada 2-2">
        <path class="cls-2" d="m396.6,200.44c-.24-.97-3.61-15.66,6.64-26.15,6.85-7.01,15.53-7.79,17.85-7.93-3.08,5.04-7.81,13.83-9.92,25.78-2.23,13.05-.16,23.86,1.45,29.6,11.49-12.72,27.73-14.74,36.82-7.89,7.27,5.48,7.9,15.69,7.93,17.85,10.63-3.39,17.57-2.2,21.63-.33,14.71,6.33,15.39,24.66,31.38,49.77,7.26,11.17,14.64,19.34,19.68,24.32,16.04-14.99,31.86-29.68,47.9-44.67-5.01.98-12.71,2.06-21.63.33-11.95-2.11-19.83-8.05-23.12-10.29-2.73-2.05-4.62-3.96-8.63-7.45,0,0-6.59-6.39-13.33-13.84-12.57-14.22-24.78-33.63-26.86-36.86,8.54-.93,20.22-.68,28.56,6.55,10.49,9.09,11.48,25.75,13.87,25.41s-1.18-16.09,5.35-19.72c.27-.04.23-.3.49-.34,2.69-.11,5.78,12.19,8.18,23.5,2.13-4.09,9.41-17.85,13.92-16.59.57.19,1.17.65,1.55,1.41,5.75,6.23-.69,20.15,1.59,20.91,2.88,1.22,13.69-16.29,16.88-14.84,2.62,1.26-3.41,16.19-.19,17.91,3.52,1.94,11.95-15.23,24.7-17.02,5.05-.71,9.1,1.16,12.59,2.83,5.5,2.48,8.9,5.52,10.76,7.16,4.96,4.45,7.8,9.2,9.65,12.73.95-.95,13.61-14.92,8.8-33.75-4.97-19.89-24.53-26.08-25.36-26.23-2.24,1.4-5.74,3.52-10.25,4.15-9.56,1.35-17.07-3.83-22.75-7.64-10.15-6.7-22.35-14.47-38.65-24.36,1.38-5.61,3.53-19.19-2.2-34.91-7.05-19.33-21.64-28.65-26.11-31.55,2.86,10.71,2.92,16.93-.04,18.97-8.17,5.48-37.9-20.95-89.75-79.49,2.29,10.51,4.85,20.99,7.14,31.51-4.77-3.12-9.89-6.74-15.15-11.41-14.24-12.63-22.18-26.68-26.86-36.86-1.7,14.87-1.44,34.07,9.76,50.1,4.77,6.92,10.3,11.56,9.84,12.16-.68.91-11.79-6.74-57.58-43.38,16.96,24.91,10.5,55.24-7.52,66.55-12.21,7.66-29.43,6.4-44-2,10.05,42.57,26.33,58.55,40,65,6.73,3.18,15.28,5.19,27,13,13.66,9.1,22.55,20.01,28,28Zm99.08-71.94c15.33,14.64,31.45,19.42,31.03,20.29-.19.57-8.12-1.84-41.55-14.2-2.75-9.91-5.27-20.12-8.02-30.03,3.89,6.5,9.76,15.42,18.54,23.94h0Z"/>
      </g>
    </g>
  </g>
</svg>